<svg xmlns="http://www.w3.org/2000/svg" viewBox="0 0 200 220" fill="none">
  <defs>
    <linearGradient id="appleBody" x1="0" y1="0" x2="0" y2="1">
      <stop offset="0" stop-color="#ff6b57"/>
      <stop offset="1" stop-color="#e13d2c"/>
    </linearGradient>
    <linearGradient id="appleShine" x1="0" y1="0" x2="1" y2="1">
      <stop offset="0" stop-color="#ffffff" stop-opacity="0.55"/>
      <stop offset="1" stop-color="#ffffff" stop-opacity="0"/>
    </linearGradient>
    <linearGradient id="leaf" x1="0" y1="0" x2="1" y2="1">
      <stop offset="0" stop-color="#4ade80"/>
      <stop offset="1" stop-color="#22c55e"/>
    </linearGradient>
  </defs>
  <!-- gövde -->
  <path d="M100 70c-34 0-58 30-58 68 0 40 26 74 50 74 12 0 15-6 24-6s12 6 24 6c24 0 44-38 44-76 0-36-22-66-52-66-8 0-13 3-16 3s-8-3-16-3Z" fill="url(#appleBody)"/>
  <path d="M100 70c-34 0-58 30-58 68 0 40 26 74 50 74 12 0 15-6 24-6s12 6 24 6c24 0 44-38 44-76 0-36-22-66-52-66-8 0-13 3-16 3s-8-3-16-3Z" fill="url(#appleShine)" opacity="0.5"/>
  <!-- sap -->
  <path d="M104 70c0-18 8-30 8-30" stroke="#5b3a22" stroke-width="6" stroke-linecap="round" fill="none"/>
  <!-- yaprak -->
  <path d="M112 46c18-10 34 2 34 2s-8 20-28 18c-10-1-10-14-6-20Z" fill="url(#leaf)"/>
</svg>
